<svg viewBox="0 0 21 21" fill="none" xmlns="http://www.w3.org/2000/svg">
  <path
    d="M9.97628 2.29547C10.359 1.47418 11.5267 1.47418 11.9095 2.29547L13.532 5.77752C13.6874 6.111 14.0038 6.34083 14.369 6.38557L18.182 6.85273C19.0813 6.96292 19.4422 8.07352 18.7794 8.69129L15.9692 11.3105C15.7 11.5613 15.5792 11.9332 15.6495 12.2943L16.3835 16.0651C16.5566 16.9545 15.6119 17.6409 14.8195 17.2014L11.4601 15.3381C11.1384 15.1596 10.7474 15.1596 10.4256 15.3381L7.06623 17.2014C6.27388 17.6409 5.32914 16.9545 5.50226 16.0651L6.23626 12.2943C6.30655 11.9332 6.18573 11.5613 5.91659 11.3105L3.10637 8.69129C2.44354 8.07352 2.8044 6.96292 3.70375 6.85273L7.51679 6.38557C7.88197 6.34083 8.1983 6.111 8.35369 5.77752L9.97628 2.29547Z"
    
  />
  <defs>
    <linearGradient
      id="paint0_linear_524_3678"
      x1="18.3517"
      y1="-6.84454"
      x2="-5.94168"
      y2="5.31091"
      gradientUnits="userSpaceOnUse"
    >
      <stop stop-color="#95C8FF" />
      <stop offset="1" stop-color="#E0FF9E" />
    </linearGradient>
  </defs>
</svg>

