<svg width="19" height="18" viewBox="0 0 19 18" fill="none" xmlns="http://www.w3.org/2000/svg">
<path d="M6.42531 7.79628L4.93935 9.28223C4.38439 9.83719 4.06525 10.5923 4.07108 11.3859C4.07691 12.1795 4.38907 12.9392 4.97037 13.5026C5.53368 14.0839 6.29356 14.396 7.08703 14.4018C7.89859 14.4078 8.63583 14.1067 9.19083 13.5517L10.6768 12.0657M12.5748 10.204L14.0608 8.71805C14.6157 8.16309 14.9349 7.40798 14.929 6.61438C14.9232 5.82078 14.611 5.06107 14.0297 4.49772C13.4666 3.93454 12.7068 3.62237 11.9132 3.61654C11.1196 3.6107 10.3644 3.91173 9.80942 4.46671L8.32346 5.95266M7.2467 11.2138L11.7046 6.7559" stroke="#A9B4C6" stroke-linecap="round" stroke-linejoin="round"/>
</svg>
