<svg width="120" height="24" viewBox="0 0 120 24" fill="none" xmlns="http://www.w3.org/2000/svg">
<path d="M59.8567 5.2558H75.8625V8.74541H69.962V18.3383H65.7572V8.74541H59.8567V5.2558Z" fill="black"/>
<path d="M85.1061 16.4902H76.0182L74.1529 19.0362L71.1351 16.7502L80.5621 4.29437L89.9891 16.7502L86.9714 19.0362L85.1061 16.4902ZM80.5621 10.2979L78.4442 13.1751H82.6836L80.5621 10.2979Z" fill="black"/>
<path d="M89.7366 5.2558H93.8064V14.8522H103.32V18.3419H89.74V5.2558H89.7366Z" fill="black"/>
<path d="M103.071 5.25577H107.14V11.0314L116.772 4.82135L118.872 8.03322L113.346 11.505L119.059 15.7104L116.702 18.7798L109.923 13.67L107.14 15.4148V18.3454H103.071V5.25577Z" fill="black"/>
<path d="M8.73486 11.5976C8.73486 13.8944 11.3304 14.9163 15.2687 14.9163C15.8155 14.9163 16.3588 14.8985 16.8745 14.8665V8.33235C16.3623 8.29674 15.8155 8.2825 15.2687 8.2825C11.3304 8.2825 8.73486 9.30446 8.73486 11.6012V11.5976Z" fill="black"/>
<path d="M28.7378 0C12.867 0 0 5.37329 0 12C0 18.6267 12.867 24 28.7378 24C44.6087 24 57.4757 18.6267 57.4757 12C57.4757 5.37329 44.6087 0 28.7378 0ZM20.8405 18.4059C18.8644 18.3703 17.269 18.4059 15.7636 18.4059C7.82469 18.4059 4.5993 15.4789 4.5993 11.5976C4.5993 7.71632 7.82469 4.79288 15.7636 4.79288C17.269 4.79288 19.0028 4.87478 20.8405 4.87478V18.4095V18.4059ZM33.6175 10.0024V13.2427H25.4986V14.7739H35.6627V18.3739H21.3007V4.87122H35.68V4.89258L35.7112 4.87122L41.5183 12.7976L47.3254 4.87122L50.1528 6.96498L41.5183 18.3739L34.0258 8.47478H25.4986V10.0059H33.6175V10.0024ZM49.9832 17.6938C48.4259 17.6938 47.2181 16.8641 47.2181 15.4789C47.2181 14.0938 48.4259 13.2641 49.9832 13.2641C51.5405 13.2641 52.7483 14.0938 52.7483 15.4789C52.7483 16.8641 51.5405 17.6938 49.9832 17.6938Z" fill="black"/>
</svg>
