<svg width="101" height="42" viewBox="0 0 101 42" fill="none" xmlns="http://www.w3.org/2000/svg">
<g clip-path="url(#clip0_266_6340)">
<path d="M50.5 0C22.8868 0 0.5 9.19673 0.5 20.5388C0.5 31.8808 22.8868 41.0775 50.5 41.0775C78.1132 41.0775 100.5 31.8808 100.5 20.5388C100.5 9.19673 78.1132 0 50.5 0ZM36.7596 31.5029C33.3215 31.442 30.5458 31.5029 27.9265 31.5029C14.1139 31.5029 8.50217 26.4932 8.50217 19.8501C8.50217 13.207 14.1139 8.20332 27.9265 8.20332C30.5458 8.20332 33.5624 8.34349 36.7596 8.34349V31.509V31.5029ZM58.9899 17.1197V22.6658H44.8642V25.2864H62.5484V31.4481H37.5605V8.3374H62.5785V8.37396L62.6327 8.3374L72.7363 21.9039L82.8398 8.3374L87.7591 11.921L72.7363 31.4481L59.7004 14.5051H44.8642V17.1258H58.9899V17.1197ZM87.4641 30.284C84.7546 30.284 82.6532 28.864 82.6532 26.4932C82.6532 24.1224 84.7546 22.7023 87.4641 22.7023C90.1736 22.7023 92.275 24.1224 92.275 26.4932C92.275 28.864 90.1736 30.284 87.4641 30.284Z" fill="white"/>
<path d="M15.6975 19.8503C15.6975 23.7813 20.2134 25.5305 27.0655 25.5305C28.0169 25.5305 28.9622 25.5 29.8594 25.4452V14.2616C28.9682 14.2006 28.0169 14.1763 27.0655 14.1763C20.2134 14.1763 15.6975 15.9254 15.6975 19.8564V19.8503Z" fill="white"/>
</g>
<defs>
<clipPath id="clip0_266_6340">
<rect width="100" height="41.0714" fill="white" transform="translate(0.5)"/>
</clipPath>
</defs>
</svg>
