<svg xmlns="http://www.w3.org/2000/svg" width="29" height="29" viewBox="0 0 29 29" fill="none">
  <path d="M12.0839 6.04167H9.90889C8.55543 6.04167 7.8782 6.04167 7.36125 6.30507C6.90652 6.53676 6.53709 6.9062 6.30539 7.36092C6.04199 7.87787 6.04199 8.55511 6.04199 9.90857V19.0919C6.04199 20.4454 6.04199 21.1217 6.30539 21.6387C6.53709 22.0934 6.90652 22.4635 7.36125 22.6952C7.87769 22.9583 8.55411 22.9583 9.90492 22.9583H19.0957C20.4465 22.9583 21.122 22.9583 21.6384 22.6952C22.0932 22.4635 22.4638 22.0931 22.6955 21.6383C22.9587 21.1219 22.9587 20.4462 22.9587 19.0954V16.9167M24.167 10.875V4.83333M24.167 4.83333H18.1253M24.167 4.83333L15.7087 13.2917" stroke="#7B7E84" stroke-width="2" stroke-linecap="round" stroke-linejoin="round"/>
</svg>